<svg width="19" height="19" viewBox="0 0 19 19" fill="none" xmlns="http://www.w3.org/2000/svg">
<path d="M13.6794 14.2372V16.0196C13.6794 16.1385 13.724 16.2424 13.8131 16.3316C13.9022 16.4207 14.0062 16.4653 14.125 16.4653C14.2438 16.4653 14.3478 16.4207 14.4369 16.3316C14.5261 16.2424 14.5706 16.1385 14.5706 16.0196V14.2372H16.353C16.4719 14.2372 16.5758 14.1927 16.6649 14.1036C16.7541 14.0144 16.7986 13.9105 16.7986 13.7916C16.7986 13.6728 16.7541 13.5688 16.6649 13.4797C16.5758 13.3906 16.4719 13.346 16.353 13.346H14.5706V11.5636C14.5706 11.4448 14.5261 11.3408 14.4369 11.2517C14.3478 11.1626 14.2438 11.118 14.125 11.118C14.0062 11.118 13.9022 11.1626 13.8131 11.2517C13.724 11.3408 13.6794 11.4448 13.6794 11.5636V13.346H11.897C11.7782 13.346 11.6742 13.3906 11.5851 13.4797C11.496 13.5688 11.4514 13.6728 11.4514 13.7916C11.4514 13.9105 11.496 14.0144 11.5851 14.1036C11.6742 14.1927 11.7782 14.2372 11.897 14.2372H13.6794ZM14.125 18.2477C12.8922 18.2477 11.8415 17.8133 10.9728 16.9447C10.1036 16.0755 9.66899 15.0245 9.66899 13.7916C9.66899 12.5588 10.1036 11.5078 10.9728 10.6386C11.8415 9.76993 12.8922 9.33562 14.125 9.33562C15.3578 9.33562 16.4089 9.76993 17.2781 10.6386C18.1467 11.5078 18.581 12.5588 18.581 13.7916C18.581 15.0245 18.1467 16.0755 17.2781 16.9447C16.4089 17.8133 15.3578 18.2477 14.125 18.2477ZM5.21298 5.77081H12.3426C12.5951 5.77081 12.8066 5.68525 12.9771 5.51414C13.1483 5.34362 13.2338 5.13211 13.2338 4.8796C13.2338 4.62709 13.1483 4.41529 12.9771 4.24417C12.8066 4.07366 12.5951 3.9884 12.3426 3.9884H5.21298C4.96047 3.9884 4.74866 4.07366 4.57755 4.24417C4.40703 4.41529 4.32177 4.62709 4.32177 4.8796C4.32177 5.13211 4.40703 5.34362 4.57755 5.51414C4.74866 5.68525 4.96047 5.77081 5.21298 5.77081ZM8.48815 16.4653H2.53937C2.0492 16.4653 1.62945 16.2909 1.28009 15.9421C0.931337 15.5928 0.756958 15.173 0.756958 14.6828V2.20599C0.756958 1.71583 0.931337 1.29607 1.28009 0.94672C1.62945 0.597963 2.0492 0.423584 2.53937 0.423584H15.0162C15.5064 0.423584 15.9261 0.597963 16.2755 0.94672C16.6242 1.29607 16.7986 1.71583 16.7986 2.20599V8.17706C16.3679 7.96911 15.9336 7.81315 15.4957 7.70917C15.0572 7.6052 14.6003 7.55321 14.125 7.55321C13.9616 7.55321 13.8095 7.55678 13.6687 7.56391C13.5273 7.57163 13.3823 7.59035 13.2338 7.62005C13.1001 7.59035 12.9516 7.57163 12.7882 7.56391C12.6248 7.55678 12.4763 7.55321 12.3426 7.55321H5.21298C4.96047 7.55321 4.74866 7.63847 4.57755 7.80899C4.40703 7.9801 4.32177 8.19191 4.32177 8.44442C4.32177 8.69693 4.40703 8.90844 4.57755 9.07895C4.74866 9.25007 4.96047 9.33562 5.21298 9.33562H9.7804C9.51303 9.58813 9.27152 9.86292 9.05585 10.16C8.84077 10.4571 8.65154 10.7764 8.48815 11.118H5.21298C4.96047 11.118 4.74866 11.2033 4.57755 11.3738C4.40703 11.5449 4.32177 11.7567 4.32177 12.0092C4.32177 12.2617 4.40703 12.4733 4.57755 12.6438C4.74866 12.8149 4.96047 12.9004 5.21298 12.9004H7.95343C7.92372 13.049 7.90501 13.1939 7.89728 13.3353C7.89015 13.4762 7.88659 13.6283 7.88659 13.7916C7.88659 14.2818 7.93115 14.7387 8.02027 15.1623C8.10939 15.5853 8.26535 16.0196 8.48815 16.4653Z" fill="white"/>
</svg>
