<svg width="19" height="19" viewBox="0 0 19 19" fill="none" xmlns="http://www.w3.org/2000/svg">
<path d="M11.3374 8.52717L12.897 7.59141L14.4566 8.52717C14.6051 8.61629 14.7536 8.61629 14.9022 8.52717C15.0507 8.43805 15.125 8.3118 15.125 8.14841V2.68979H10.669V8.14841C10.669 8.3118 10.7432 8.43805 10.8918 8.52717C11.0403 8.61629 11.1888 8.61629 11.3374 8.52717ZM6.21294 15.1666C5.72278 15.1666 5.30332 14.9923 4.95457 14.6435C4.60521 14.2942 4.43054 13.8744 4.43054 13.3842V2.68979C4.43054 2.19962 4.60521 1.77987 4.95457 1.43052C5.30332 1.08176 5.72278 0.907379 6.21294 0.907379H16.9074C17.3976 0.907379 17.8173 1.08176 18.1667 1.43052C18.5154 1.77987 18.6898 2.19962 18.6898 2.68979V13.3842C18.6898 13.8744 18.5154 14.2942 18.1667 14.6435C17.8173 14.9923 17.3976 15.1666 16.9074 15.1666H6.21294ZM2.64813 18.7315C2.15797 18.7315 1.73851 18.5571 1.38975 18.2083C1.0404 17.859 0.865723 17.4392 0.865723 16.949V5.3634C0.865723 5.11089 0.951278 4.89908 1.12239 4.72797C1.29291 4.55745 1.50442 4.47219 1.75693 4.47219C2.00943 4.47219 2.22124 4.55745 2.39235 4.72797C2.56287 4.89908 2.64813 5.11089 2.64813 5.3634V16.949H14.2338C14.4863 16.949 14.6978 17.0346 14.8683 17.2057C15.0394 17.3762 15.125 17.5877 15.125 17.8403C15.125 18.0928 15.0394 18.3043 14.8683 18.4748C14.6978 18.6459 14.4863 18.7315 14.2338 18.7315H2.64813Z" fill="white"/>
</svg>
